REM DIRINDEX 1\6,1\2\7,1\2\8,1\2\9,1\3\10,1\3\11,1\4\12,1\4\13,1\4\14,1\5\15,1\5\16,1\5\17
REM DIRNAME folder01,folder02,folder03,folder04,folder05,folder06,folder07,folder08,folder09,folder10,folder11,folder12,folder13,folder14,folder15,folder16,folder17
TITLE ""
FILE "3Q_t2_0456-0471.mp3" MP3
  TRACK 01 AUDIO
    TITLE "7:cjc041_4783"
    INDEX 01 00:00:00
  TRACK 02 AUDIO
    TITLE "0:"
    INDEX 01 00:01:30
  TRACK 03 AUDIO
    TITLE "8:cjc041_4784"
    INDEX 01 00:02:00
  TRACK 04 AUDIO
    TITLE "0:"
    INDEX 01 00:04:25
  TRACK 05 AUDIO
    TITLE "9:cjc041_4785"
    INDEX 01 00:05:03
  TRACK 06 AUDIO
    TITLE "0:"
    INDEX 01 00:06:39
  TRACK 07 AUDIO
    TITLE "7:cjc041_4786"
    INDEX 01 00:08:19
  TRACK 08 AUDIO
    TITLE "0:"
    INDEX 01 00:09:36
  TRACK 09 AUDIO
    TITLE "8:cjc041_4787"
    INDEX 01 00:10:14
  TRACK 10 AUDIO
    TITLE "0:"
    INDEX 01 00:12:20
  TRACK 11 AUDIO
    TITLE "9:cjc041_4788"
    INDEX 01 00:13:00
  TRACK 12 AUDIO
    TITLE "0:"
    INDEX 01 00:14:21
  TRACK 13 AUDIO
    TITLE "7:cjc041_4789"
    INDEX 01 00:16:02
  TRACK 14 AUDIO
    TITLE "0:"
    INDEX 01 00:17:35
  TRACK 15 AUDIO
    TITLE "8:cjc041_4790"
    INDEX 01 00:18:11
  TRACK 16 AUDIO
    TITLE "0:"
    INDEX 01 00:20:26
  TRACK 17 AUDIO
    TITLE "9:cjc041_4791"
    INDEX 01 00:21:04
  TRACK 18 AUDIO
    TITLE "0:"
    INDEX 01 00:22:38
  TRACK 19 AUDIO
    TITLE "7:cjc041_4792"
    INDEX 01 00:24:20
  TRACK 20 AUDIO
    TITLE "0:"
    INDEX 01 00:25:39
  TRACK 21 AUDIO
    TITLE "8:cjc041_4793"
    INDEX 01 00:26:17
  TRACK 22 AUDIO
    TITLE "0:"
    INDEX 01 00:27:28
  TRACK 23 AUDIO
    TITLE "9:cjc041_4794"
    INDEX 01 00:28:10
  TRACK 24 AUDIO
    TITLE "0:"
    INDEX 01 00:29:27
  TRACK 25 AUDIO
    TITLE "7:cjc041_4795"
    INDEX 01 00:31:02
  TRACK 26 AUDIO
    TITLE "0:"
    INDEX 01 00:32:13
  TRACK 27 AUDIO
    TITLE "8:cjc041_4796"
    INDEX 01 00:32:66
  TRACK 28 AUDIO
    TITLE "0:"
    INDEX 01 00:34:00
  TRACK 29 AUDIO
    TITLE "9:cjc041_4797"
    INDEX 01 00:34:57
  TRACK 30 AUDIO
    TITLE "0:"
    INDEX 01 00:35:72
  TRACK 31 AUDIO
    TITLE "7:cjc041_4798"
    INDEX 01 00:37:54
  TRACK 32 AUDIO
    TITLE "0:"
    INDEX 01 00:39:00
  TRACK 33 AUDIO
    TITLE "8:cjc041_4799"
    INDEX 01 00:39:54
  TRACK 34 AUDIO
    TITLE "0:"
    INDEX 01 00:40:66
  TRACK 35 AUDIO
    TITLE "9:cjc041_4800"
    INDEX 01 00:41:45
  TRACK 36 AUDIO
    TITLE "0:"
    INDEX 01 00:42:68
  TRACK 37 AUDIO
    TITLE "7:cjc041_4801"
    INDEX 01 00:44:44
  TRACK 38 AUDIO
    TITLE "0:"
    INDEX 01 00:45:57
  TRACK 39 AUDIO
    TITLE "8:cjc041_4802"
    INDEX 01 00:46:33
  TRACK 40 AUDIO
    TITLE "0:"
    INDEX 01 00:47:54
  TRACK 41 AUDIO
    TITLE "9:cjc041_4803"
    INDEX 01 00:48:28
  TRACK 42 AUDIO
    TITLE "0:"
    INDEX 01 00:49:45
  TRACK 43 AUDIO
    TITLE "7:cjc041_4804"
    INDEX 01 00:51:22
  TRACK 44 AUDIO
    TITLE "0:"
    INDEX 01 00:52:41
  TRACK 45 AUDIO
    TITLE "8:cjc041_4805"
    INDEX 01 00:53:15
  TRACK 46 AUDIO
    TITLE "0:"
    INDEX 01 00:54:32
  TRACK 47 AUDIO
    TITLE "9:cjc041_4806"
    INDEX 01 00:55:12
  TRACK 48 AUDIO
    TITLE "0:"
    INDEX 01 00:56:33
  TRACK 49 AUDIO
    TITLE "7:cjc041_4807"
    INDEX 01 00:58:09
  TRACK 50 AUDIO
    TITLE "0:"
    INDEX 01 00:59:41
  TRACK 51 AUDIO
    TITLE "8:cjc041_4808"
    INDEX 01 01:00:15
  TRACK 52 AUDIO
    TITLE "0:"
    INDEX 01 01:01:33
  TRACK 53 AUDIO
    TITLE "9:cjc041_4809"
    INDEX 01 01:02:08
  TRACK 54 AUDIO
    TITLE "0:"
    INDEX 01 01:03:43
  TRACK 55 AUDIO
    TITLE "7:cjc041_4810"
    INDEX 01 01:05:24
  TRACK 56 AUDIO
    TITLE "0:"
    INDEX 01 01:06:38
  TRACK 57 AUDIO
    TITLE "8:cjc041_4811"
    INDEX 01 01:07:08
  TRACK 58 AUDIO
    TITLE "0:"
    INDEX 01 01:08:15
  TRACK 59 AUDIO
    TITLE "9:cjc041_4812"
    INDEX 01 01:08:68
  TRACK 60 AUDIO
    TITLE "0:"
    INDEX 01 01:10:08
  TRACK 61 AUDIO
    TITLE "7:cjc041_4813"
    INDEX 01 01:11:58
  TRACK 62 AUDIO
    TITLE "0:"
    INDEX 01 01:12:68
  TRACK 63 AUDIO
    TITLE "8:cjc041_4814"
    INDEX 01 01:13:49
  TRACK 64 AUDIO
    TITLE "0:"
    INDEX 01 01:14:59
  TRACK 65 AUDIO
    TITLE "9:cjc041_4815"
    INDEX 01 01:15:35
  TRACK 66 AUDIO
    TITLE "0:"
    INDEX 01 01:16:46
  TRACK 67 AUDIO
    TITLE "7:cjc041_4816"
    INDEX 01 01:18:25
  TRACK 68 AUDIO
    TITLE "0:"
    INDEX 01 01:19:32
  TRACK 69 AUDIO
    TITLE "8:cjc041_4817"
    INDEX 01 01:20:10
  TRACK 70 AUDIO
    TITLE "0:"
    INDEX 01 01:20:71
  TRACK 71 AUDIO
    TITLE "9:cjc041_4818"
    INDEX 01 01:21:51
  TRACK 72 AUDIO
    TITLE "0:"
    INDEX 01 01:22:60
  TRACK 73 AUDIO
    TITLE "7:cjc041_4819"
    INDEX 01 01:24:39
  TRACK 74 AUDIO
    TITLE "0:"
    INDEX 01 01:25:51
  TRACK 75 AUDIO
    TITLE "8:cjc041_4820"
    INDEX 01 01:26:29
  TRACK 76 AUDIO
    TITLE "0:"
    INDEX 01 01:27:51
  TRACK 77 AUDIO
    TITLE "9:cjc041_4821"
    INDEX 01 01:28:29
  TRACK 78 AUDIO
    TITLE "0:"
    INDEX 01 01:29:39
  TRACK 79 AUDIO
    TITLE "7:cjc041_4822"
    INDEX 01 01:31:18
  TRACK 80 AUDIO
    TITLE "0:"
    INDEX 01 01:32:31
  TRACK 81 AUDIO
    TITLE "8:cjc041_4823"
    INDEX 01 01:33:11
  TRACK 82 AUDIO
    TITLE "0:"
    INDEX 01 01:35:29
  TRACK 83 AUDIO
    TITLE "9:cjc041_4824"
    INDEX 01 01:36:05
  TRACK 84 AUDIO
    TITLE "0:"
    INDEX 01 01:37:21
  TRACK 85 AUDIO
    TITLE "7:cjc041_4825"
    INDEX 01 01:39:02
  TRACK 86 AUDIO
    TITLE "0:"
    INDEX 01 01:40:36
  TRACK 87 AUDIO
    TITLE "8:cjc041_4826"
    INDEX 01 01:41:12
  TRACK 88 AUDIO
    TITLE "0:"
    INDEX 01 01:42:18
  TRACK 89 AUDIO
    TITLE "9:cjc041_4827"
    INDEX 01 01:42:73
  TRACK 90 AUDIO
    TITLE "0:"
    INDEX 01 01:44:32
  TRACK 91 AUDIO
    TITLE "7:cjc041_4828"
    INDEX 01 01:46:16
  TRACK 92 AUDIO
    TITLE "0:"
    INDEX 01 01:47:25
  TRACK 93 AUDIO
    TITLE "8:cjc041_4829"
    INDEX 01 01:48:05
  TRACK 94 AUDIO
    TITLE "0:"
    INDEX 01 01:49:12
  TRACK 95 AUDIO
    TITLE "9:cjc041_4830"
    INDEX 01 01:49:69
  TRACK 96 AUDIO
    TITLE "0:"
    INDEX 01 01:51:05
